<svg viewBox="0 0 130.687 62.373" xmlns="http://www.w3.org/2000/svg" xmlns:xlink="http://www.w3.org/1999/xlink"><linearGradient id="a" gradientUnits="objectBoundingBox" x2="1" y1=".5" y2=".5"><stop offset="0" stop-color="#6fc68e"/><stop offset="1" stop-color="#47b593"/></linearGradient><g fill="none"><path d="m27.982 10.943h17.352v17.352h-17.352z"/><path d="m8.129 10.943h17.352v17.352h-17.352z"/><path d="m67.844 10.943h17.352v17.352h-17.352z"/><circle cx="22.667" cy="52.368" r="5.002"/><circle cx="103.33" cy="52.368" r="5.002"/><path d="m47.991 10.943h17.352v17.352h-17.352z"/><path d="m87.698 10.943h17.352v17.352h-17.352z"/></g><path d="m18.1 27.1a10 10 0 1 0 10 10 10.075 10.075 0 0 0 -10-10zm0 15.007a5 5 0 1 1 5-5 5.144 5.144 0 0 1 -5 5z" fill="#1f4e46" transform="translate(4.562 15.264)"/><path d="m3.383 27.328a7.445 7.445 0 0 0 -3.283-5.628v11.255a7.445 7.445 0 0 0 3.283-5.627z" fill="#1f4e46" transform="translate(.056 12.222)"/><path d="m69.7 27.1a10 10 0 1 0 10 10 9.974 9.974 0 0 0 -10-10zm0 15.007a5 5 0 1 1 5-5 5.037 5.037 0 0 1 -5 5z" fill="#1f4e46" transform="translate(33.625 15.264)"/><path d="m128.811 41.738c-3.908 0-6.253-2.97-6.253-7.973v-15.165c0-5 2.345-7.973 6.253-7.973h1.876v-1.56a6.339 6.339 0 0 0 -6.409-6.409h-47.367v-2.658h-37.048v2.658h-33.454a6.339 6.339 0 0 0 -6.409 6.409v21.733c3.6 2.189 5.784 5.315 5.784 8.754 0 3.283-2.032 6.253-5.471 8.441a6.391 6.391 0 0 0 5.94 4.377h3.747a12.35 12.35 0 0 1 24.7 0h55.968a12.35 12.35 0 0 1 24.7 0h8.441a6.339 6.339 0 0 0 6.409-6.409v-4.225zm-103.33-13.443h-17.352v-17.352h17.352zm19.853 0h-17.352v-17.352h17.352zm20.009 0h-17.352v-17.352h17.352zm19.853 0h-17.352v-17.352h17.356zm19.853 0h-17.349v-17.352h17.352z" fill="url(#a)"/><path d="m79.5 14.153v15.163c0 2.814.782 6.253 4.533 6.253h1.876v-27.669h-1.876c-3.751 0-4.533 3.283-4.533 6.253z" fill="#1f4e46" transform="translate(44.777 4.45)"/><path d="m8.129 10.943h17.352v17.352h-17.352z" fill="#afe2bd"/><path d="m27.982 10.943h17.352v17.352h-17.352z" fill="#afe2bd"/><path d="m47.991 10.943h17.352v17.352h-17.352z" fill="#afe2bd"/><path d="m67.844 10.943h17.352v17.352h-17.352z" fill="#afe2bd"/><path d="m87.698 10.943h17.352v17.352h-17.352z" fill="#afe2bd"/></svg>