<svg viewBox="0 0 112.01 84.891" xmlns="http://www.w3.org/2000/svg" xmlns:xlink="http://www.w3.org/1999/xlink"><linearGradient id="a" gradientUnits="objectBoundingBox" x2="1.001" y1=".502" y2=".502"><stop offset="0" stop-color="#1f4e46"/><stop offset="1" stop-color="#47b593"/></linearGradient><linearGradient id="b" gradientUnits="objectBoundingBox" x1="-.001" x2=".999" y1=".501" y2=".501"><stop offset="0" stop-color="#6fc68e"/><stop offset="1" stop-color="#47b593"/></linearGradient><path d="m110.906 15.935a1.384 1.384 0 0 0 -1.147-.51h-10.2v-6.374a1.55 1.55 0 0 0 -1.53-1.53h-47.293l-5.991-7.011a1.9 1.9 0 0 0 -1.145-.51h-42.07a1.473 1.473 0 0 0 -1.53 1.53v81.458.51.127.127a.125.125 0 0 0 .127.127.125.125 0 0 0 .127.127l.127.127h97.395a1.514 1.514 0 0 0 1.53-1.275l11.728-66.034c.255-.124.127-.507-.128-.889z" fill="url(#a)"/><path d="m.8 81.038 10.453-60.552h24.986a.964.964 0 0 0 .51-.127l25.751-8.159h48.7l-11.859 68.838z" fill="url(#b)" stroke="#afe2bd" stroke-miterlimit="10" transform="translate(.22 3.352)"/></svg>