<svg viewBox="0 0 104.545 89.442" xmlns="http://www.w3.org/2000/svg" xmlns:xlink="http://www.w3.org/1999/xlink"><linearGradient id="a" gradientUnits="objectBoundingBox" x1=".001" x2="1" y1=".501" y2=".501"><stop offset="0" stop-color="#1f4e46"/><stop offset="1" stop-color="#47b593"/></linearGradient><path d="m59.5 25s-1.044-25-26.041-25c-29.293 0-33.459 51.556-33.459 51.556h7.681v11.844s-.521 3.906 2.994 3.906c.391 0 5.338 0 11.848.13.911 2.734-.13 6.9.521 13.019h32.678c5.729-31.242 3.778-55.455 3.778-55.455z" fill="#6fc68e"/><path d="m38.47 87.359h32.678c.651-6.119-.391-10.285.521-13.019 6.51-.13 11.457-.13 11.848-.13 3.515 0 2.994-3.906 2.994-3.906v-11.848h7.681s-4.166-51.556-33.592-51.556c-25 0-26.038 25-26.038 25s-1.821 24.343 3.908 55.459zm37.886-45.307a2.946 2.946 0 0 1 2.994-2.994 2.994 2.994 0 1 1 0 5.989 2.946 2.946 0 0 1 -2.994-2.995z" fill="url(#a)" transform="translate(10.352 2.083)"/><circle cx="14.972" cy="30.725" fill="#1f4e46" r="2.994"/><circle cx="89.832" cy="44.135" fill="#afe2bd" r="2.994"/></svg>