<svg viewBox="0 0 85.46 80.549" xmlns="http://www.w3.org/2000/svg" xmlns:xlink="http://www.w3.org/1999/xlink"><linearGradient id="a" gradientUnits="objectBoundingBox" x1=".004" x2="1" y1=".499" y2=".499"><stop offset="0" stop-color="#6fc68e"/><stop offset="1" stop-color="#47b593"/></linearGradient><linearGradient id="b" gradientUnits="objectBoundingBox" x1="-.001" x2="1.002" y1=".499" y2=".499"><stop offset="0" stop-color="#1f4e46"/><stop offset=".195" stop-color="#215249"/><stop offset=".393" stop-color="#255e52"/><stop offset=".592" stop-color="#2d7361"/><stop offset=".793" stop-color="#388f77"/><stop offset=".993" stop-color="#46b492"/><stop offset="1" stop-color="#47b593"/></linearGradient><g transform="translate(.105 -.041)"><path d="m42.611 80.424c-.166 0-.166.166-.331.166l-7.449-5.463a145.013 145.013 0 0 1 -21.685-19.865 59.27 59.27 0 0 1 -11.257-18.54c-2.979-8.773-2.814-17.546 1.821-25.822 2.98-5.3 7.449-9.106 13.574-10.264 8.608-1.655 16.223 0 22.347 6.787.828.993 1.821 1.986 2.649 2.98" fill="url(#a)"/><path d="m25.9 10.349c1.159-1.159 2.152-2.318 3.311-3.476 5.131-5.463 11.589-7.284 18.871-6.622 9.932.993 15.726 6.953 18.706 16.057 2.649 7.78 1.655 15.56-1.49 23.175-2.98 6.953-7.284 12.746-12.415 18.375-7.946 8.608-17.216 15.891-26.817 22.678" fill="#afe2bd" transform="translate(17.042 .053)"/><path d="m4.354 35.52h10.76l3.973-5.3 10.925 22.019 11.588-29.299 9.27 20.86 7.946-8.277h11.256a2.338 2.338 0 1 0 0-4.635h-13.905l-3.807 3.805-11.091-25.493-11.919 30.128-9.435-19.037-7.781 10.429h-7.78a2.454 2.454 0 0 0 -2.649 2.318 2.394 2.394 0 0 0 2.649 2.482z" fill="url(#b)" transform="translate(1.177 6.003)"/></g></svg>