<svg viewBox="0 0 84.8 90" xmlns="http://www.w3.org/2000/svg" xmlns:xlink="http://www.w3.org/1999/xlink"><linearGradient id="a" gradientUnits="objectBoundingBox" x2="1" y1=".5" y2=".5"><stop offset="0" stop-color="#6fc68e"/><stop offset="1" stop-color="#47b593"/></linearGradient><path d="m23.5 16.3-21 22v40.8l42.7 10.4 1.3-40.7z" fill="#afe2bd"/><path d="m28.9 58.2v27.3l-10.7-2.7v-27.3z" fill="#1f4e46"/><path d="m23.6 19.8 19.2 29.3v39.8l4.3 1.1 37.7-12-.1-42.1-23.5-35.9-37.7 12m48.3 48.3-5.2 1.7v-5.9l5.2-1.7zm-6.6-3.8v5.9l-5.2 1.7v-5.9zm-5.3 9.1 5.2-1.7v5.9l-5.2 1.7zm6.7 3.7v-5.9l5.2-1.7v5.9z" fill="url(#a)"/><path d="m23.4 12.1-23.4 24.2v42.1l4.3 1.1v-39.8l19.2-19.8" fill="#1f4e46"/></svg>