<svg viewBox="0 0 72.416 104.698" xmlns="http://www.w3.org/2000/svg"><path d="m65.218 56.82a35 35 0 0 0 7.2-21.267c-.002-19.63-16.252-35.553-36.21-35.553s-36.208 15.923-36.208 35.554a34.855 34.855 0 0 0 6.98 21.046 67.515 67.515 0 0 1 9.706 19.2l.327 1.091v3.272h-.213a2.181 2.181 0 0 0 0 4.362h.218v1.636h-.218a2.181 2.181 0 0 0 0 4.362h.218v3.926a2.188 2.188 0 0 0 2.181 2.181h4.8l.654 3.381c.545 2.727 3.381 4.69 6.762 4.69h9.485c3.381 0 6.216-1.963 6.762-4.69l.654-3.381h4.8a2.188 2.188 0 0 0 2.181-2.181v-3.929h.218a2.181 2.181 0 1 0 0-4.362h-.218v-1.745h.218a2.181 2.181 0 1 0 0-4.362h-.218v-3.927h-.109a70.294 70.294 0 0 1 10.03-19.304z" fill="#afe2bd"/><path d="m59.8 25.482a1.1 1.1 0 0 0 -.436-.763 1.175 1.175 0 0 0 -.872-.218c-.545.109-13.087 2.727-20.067 12.324-.327.436-.545.763-.763 1.091-2.945 4.362-2.727 9.6.545 12l.109.109c-.109.109-.218.109-.218.218a9.137 9.137 0 0 0 -3.163 2.945 14.739 14.739 0 0 0 -6.977-8.188l.109-.218c1.745-2.4.763-6.107-2.29-8.507a4.617 4.617 0 0 0 -.763-.545c-6.762-4.908-15.7-4.035-16.032-3.926a1.1 1.1 0 0 0 -.763.436 1.175 1.175 0 0 0 -.219.876c.109.327 1.854 9.161 8.616 14.069.327.218.545.436.763.545a7.683 7.683 0 0 0 5.562 1.418 4.969 4.969 0 0 0 3.159-1.854l.436-.545c5.671 2.836 6.762 8.616 6.98 9.815-1.091 4.362-.109 10.034.436 12.869.109 0 .654 4.69 1.527 9.161a8.419 8.419 0 0 1 1.636-.218h.545c-.763-4.253-1.527-8.943-1.636-9.6-.654-2.727-1.309-7.743-.327-11.669a.4.4 0 0 1 .109-.327 7.118 7.118 0 0 1 3.276-4.58c.436-.218.763-.436 1.2-.654l1.636 1.2a6.608 6.608 0 0 0 4.8 1.091 10.891 10.891 0 0 0 6.653-4.253 9.434 9.434 0 0 0 .763-1.091c7.087-9.815 5.779-22.466 5.666-23.011z" fill="#1f4e46" transform="translate(.725 2.22)"/><path d="m8.218 31.6a1.311 1.311 0 0 0 -.218.872c.109.327 1.854 9.161 8.616 14.069.327.218.545.436.763.545a7.683 7.683 0 0 0 5.562 1.414 4.969 4.969 0 0 0 3.159-1.85l.654-.545" fill="#47b593" transform="translate(.725 2.863)"/><path d="m37.5 51.629a.107.107 0 0 0 .109-.109l1.636 1.2a6.608 6.608 0 0 0 4.8 1.091 10.891 10.891 0 0 0 6.655-4.254 9.434 9.434 0 0 0 .763-1.091c6.98-9.6 5.671-22.357 5.671-22.9a1.1 1.1 0 0 0 -.436-.763" fill="#47b593" transform="translate(3.398 2.247)"/><g fill="#1f4e46"><path d="m41.15 92.608c-.109.545-1.091 1.2-2.508 1.2h-9.488c-1.418 0-2.4-.654-2.508-1.2l-.546-2.508h15.487z" transform="translate(2.365 8.163)"/><path d="m21.485 92.156h29.664v1.745h-29.664z"/><path d="m21.485 86.049h29.664v1.745h-29.664z"/><path d="m22.03 80.05h29.664v1.745h-29.664z"/></g></svg>