<svg viewBox="0 0 91.507 108.399" xmlns="http://www.w3.org/2000/svg" xmlns:xlink="http://www.w3.org/1999/xlink"><linearGradient id="a" gradientUnits="objectBoundingBox" x1=".002" x2="1" y1=".499" y2=".499"><stop offset="0" stop-color="#1f4e46"/><stop offset="1" stop-color="#47b593"/></linearGradient><g fill="#afe2bd"><path d="m23.35 109.555a35.071 35.071 0 0 1 -3.485-2.348l2.348-3.182c.985.758 2.045 1.439 3.106 2.121zm-6.666-4.924a36.235 36.235 0 0 1 -2.954-2.954l2.879-2.651c.833.909 1.742 1.818 2.651 2.651zm-5.606-6.212c-.833-1.136-1.591-2.273-2.348-3.485l3.409-2.045a28.124 28.124 0 0 0 2.121 3.111zm-4.242-7.044a34.474 34.474 0 0 1 -1.591-3.863l3.712-1.364c.455 1.212.909 2.348 1.439 3.485zm-2.803-7.875c-.3-1.364-.606-2.727-.833-4.091l3.863-.609a32.253 32.253 0 0 0 .758 3.712z" transform="translate(-.776 -19.108)"/><path d="m102.856 54.155a32.254 32.254 0 0 0 -.758-3.712l3.788-.985c.3 1.364.606 2.727.833 4.091zm-1.818-7.348c-.454-1.212-.909-2.348-1.439-3.485l3.56-1.667a29.449 29.449 0 0 1 1.591 3.863zm-3.257-6.818c-.682-1.061-1.364-2.121-2.121-3.106l3.182-2.348c.833 1.136 1.591 2.273 2.348 3.485zm-4.469-5.984c-.833-.909-1.742-1.818-2.651-2.651l2.651-2.879a27.2 27.2 0 0 1 2.954 2.954zm-5.606-5.075c-.985-.758-2.045-1.439-3.106-2.121l2.045-3.409a35.071 35.071 0 0 1 3.485 2.348z" transform="translate(-20.515 -5.674)"/><path d="m0 53.025s1.136-42.725 45.6-44.844v-8.181l15.076 14.014-14.923 13.635.379-8.333s-31.815-2.348-35.224 34.77h-10.908z"/><path d="m100.815 74.939s-2.727 42.648-47.268 43.1l-.3 8.181-14.547-14.542 15.377-13.029-.682 8.333s31.739 3.56 36.512-33.482l10.984.379z" transform="translate(-9.385 -17.823)"/></g><circle cx="17.801" cy="17.801" fill="url(#a)" r="17.801" transform="translate(28.482 34.618)"/><path d="m49.4 67.054 8.105 6.06 9.695-11.514" fill="none" stroke="#f5f5f5" stroke-miterlimit="10" stroke-width="4" transform="translate(-11.979 -14.938)"/></svg>